<?xml version="1.0" standalone="no"?><!DOCTYPE svg PUBLIC "-//W3C//DTD SVG 1.1//EN" "http://www.w3.org/Graphics/SVG/1.1/DTD/svg11.dtd"><svg t="1671042246600" class="icon" viewBox="0 0 1024 1024" version="1.1" xmlns="http://www.w3.org/2000/svg" p-id="7984" xmlns:xlink="http://www.w3.org/1999/xlink" width="512" height="512"><path d="M821.4 574.5c3.4-18.6 5.2-37.1 5.2-55.3 0-118.6-66.2-226.3-170.4-280.4-1.7-79.8-67.1-144.3-147.4-144.3-81 0-146.9 65.6-147.6 146.4-102 54.8-166.8 161.7-166.8 278.4 0 18.2 1.8 36.7 5.2 55.3-39.8 27.2-64.5 72.4-64.5 121.6 0 81.4 66.2 147.6 147.6 147.6 36.3 0 70.5-13.3 97.2-36.8 40.9 18.6 85.5 28.4 130.6 28.4 45.1 0 89.8-9.8 130.6-28.4 26.7 23.5 60.8 36.8 97.2 36.8 81.4 0 147.6-66.2 147.6-147.6 0-49.3-24.7-94.5-64.5-121.7zM508.8 158.9c45.9 0 83.1 37.2 83.1 83.1s-37.2 83.1-83.1 83.1-83.1-37.2-83.1-83.1 37.2-83.1 83.1-83.1z m-226 620.3c-45.9 0-83.1-37.2-83.1-83.1 0-45.9 37.2-83.1 83.1-83.1s83.1 37.2 83.1 83.1c0 45.9-37.2 83.1-83.1 83.1z m307.9-83.1c0 20 4.4 39.2 12 57.1-58.6 22.7-125.7 22.7-184.3 0 7.6-17.9 12-37.1 12-57.1 0-81.4-66.2-147.6-147.6-147.6-7.3 0-14.6 0.7-21.8 1.8-1.4-10.5-2.1-20.9-2.1-31.1 0-86.9 45.1-166.9 117.3-212.6 24 49.8 74.6 83 132.6 83 57.9 0 109.4-34.5 133.3-84.9C716 350 762.2 430.8 762.2 519.1c0 10.2-0.7 20.6-2.1 31.1-7.2-1.1-14.4-1.8-21.8-1.8-81.3 0.1-147.6 66.3-147.6 147.7z m147.6 83.1c-45.9 0-83.1-37.2-83.1-83.1 0-45.9 37.2-83.1 83.1-83.1s83.1 37.2 83.1 83.1c0.1 45.9-37.2 83.1-83.1 83.1z" p-id="7985" fill="#707070"></path></svg>