<?xml version="1.0" standalone="no"?><!DOCTYPE svg PUBLIC "-//W3C//DTD SVG 1.1//EN" "http://www.w3.org/Graphics/SVG/1.1/DTD/svg11.dtd"><svg t="1671042716614" class="icon" viewBox="0 0 1024 1024" version="1.1" xmlns="http://www.w3.org/2000/svg" p-id="14158" xmlns:xlink="http://www.w3.org/1999/xlink" width="512" height="512"><path d="M739.6 698c-2.6 2.4-3.8 2.7-6.5 0-28-28.3-56.2-56.4-84.5-84.5-2.5-2.5-3.2-3.7-0.1-6.7 42.1-40.6 60-90.3 51.4-148.1-8.2-55.2-38.4-96.1-87.2-123.3-3.1-1.8-3.6-2.6-1.2-5.5 13.5-16.5 26.8-33.2 39.9-49.9 2.3-2.9 4.1-3.4 7.4-2 18.1 7.6 37 9.9 56.3 7.6 66.5-7.8 112.4-68 102.5-134.2-10.9-72.8-86.9-117.5-156-91.9-83.7 31-103.4 139.7-36 198.3 2.7 2.4 2.5 3.6 0.4 6.1-14.6 18-29.1 36-43.4 54.3-2.4 3-4.4 3.5-7.9 2.6-28.5-7.2-57-6.9-85.4 0.8-27.9 7.6-52.1 21.6-72.9 41.6-1.4 1.3-2.3 3.7-5.2 1.5-12.8-9.8-25.8-19.4-38.7-29.2 1.5-2.1 2.8-3.9 4.2-5.9 14.4-21.1 20.4-44.5 17.3-69.7-6.2-50.5-45.1-86.8-95.8-90.4-62.8-4.5-116 52.2-107.6 114.6 10.1 75 91.7 113.6 156.4 74 2.7-1.6 4.2-1.2 6.5 0.5 12.6 9.6 25.2 19.1 38 28.4 2.8 2 2.3 3.4 0.8 5.8-30.5 49.4-35.1 101.2-14 155.2 1.2 3 0.8 4.6-1.6 6.7-36.2 32-72.4 64-108.5 96.2-2.6 2.3-4.4 2.7-7.6 0.9-21.4-12-44.6-16.4-68.9-13.8-66.5 7.3-113.3 69.3-102.3 136 10.5 64.2 73.1 108.4 136.5 95.6 43.9-8.8 74.7-34.7 89.2-77.1 14.5-42.3 6.1-81.4-23.1-115.6-3.1-3.6-2.3-5 0.7-7.6 24-21.1 47.9-42.4 71.9-63.6 10.1-8.9 20.2-17.9 30.3-26.8 0.6 0.8 1.1 1.3 1.5 1.8 52.1 71.8 143.6 92 221.5 48.8 2.7-1.5 3.9-0.9 5.7 1 30.3 30.5 60.7 60.9 91.2 91.2 2.4 2.4 2.8 3.9 1.1 7.1-11.5 21.3-15.8 44.1-13.1 68.1 7.7 67.1 69 113 136.1 102.2 65.8-10.6 110-77.4 94.1-142.3-21.6-87.4-126.8-119.4-193.4-58.8zM615.1 169.3c0.1-48 39.2-87.1 87.1-87 48 0.1 87.1 39.4 87 87.2-0.1 48-39.2 87-87.1 86.9-48.3-0.1-87.1-39.1-87-87.1zM292.6 344.1c-40.1 0-72.5-32.2-72.5-72.2 0-40.1 32.2-72.4 72.2-72.5 39.9-0.1 72.3 32.2 72.4 72.3 0.2 40-32.1 72.4-72.1 72.4z m-1 410.9c-0.1 47.7-39.3 86.7-86.9 86.6-48.2-0.1-87.3-39.3-87.1-87.5 0.2-47.6 39.3-86.6 87-86.5 48.4 0.1 87.1 39 87 87.4z m239.1-132.9c-75.4-1-136.2-64.6-135.1-141.3 1.1-75 64.5-136.1 139.9-134.9 75.9 1.1 137.6 63.6 136.6 138.3-1.1 78.4-63.1 138.9-141.4 137.9z m289.1 248.8c-48.2 0.3-87.5-38.6-87.7-86.9-0.2-47.7 38.6-86.8 86.3-87.1 48.3-0.3 87.6 38.6 87.7 86.8 0.2 47.6-38.8 86.9-86.3 87.2z" p-id="14159" fill="#707070"></path></svg>