<?xml version="1.0" standalone="no"?><!DOCTYPE svg PUBLIC "-//W3C//DTD SVG 1.1//EN" "http://www.w3.org/Graphics/SVG/1.1/DTD/svg11.dtd"><svg t="1671042392368" class="icon" viewBox="0 0 1024 1024" version="1.1" xmlns="http://www.w3.org/2000/svg" p-id="9537" xmlns:xlink="http://www.w3.org/1999/xlink" width="512" height="512"><path d="M742.3104 601.5232a156.032 156.032 0 0 0-0.3712 0.0128l-117.2736-203.1232a152.8832 152.8832 0 0 0 40.8576-104.064c0-84.8256-68.7616-153.5872-153.5744-153.5872s-153.5872 68.7616-153.5872 153.5872c0 41.0752 16.2176 78.2848 42.4832 105.8432-0.704 0.9856-1.536 1.7792-2.1504 2.8672l-108.0704 198.912h0.0128c-3.008-0.1792-6.0032-0.4608-9.0496-0.4608C196.7616 601.5104 128 670.272 128 755.0848S196.7616 908.672 281.5872 908.672c76.0832 0 139.072-55.3728 151.2832-127.9872h158.1824v-0.0384c12.1984 72.6272 75.1872 128.0128 151.2832 128.0128 84.8256 0 153.5872-68.7616 153.5872-153.5872s-68.8-153.5488-153.6128-153.5488zM511.936 191.9744c56.5504 0 102.3872 45.8368 102.3872 102.3872s-45.8368 102.3872-102.3872 102.3872-102.3872-45.8368-102.3872-102.3872 45.8368-102.3872 102.3872-102.3872zM281.5616 857.4976c-56.5504 0-102.3872-45.8368-102.3872-102.3872s45.8368-102.3872 102.3872-102.3872 102.3872 45.8368 102.3872 102.3872-45.8368 102.3872-102.3872 102.3872z m309.4656-127.9488v-0.0384H432.8448a153.6768 153.6768 0 0 0-91.1232-115.7376l99.5072-183.168c21.1712 11.008 45.184 17.3312 70.7072 17.3312 25.984 0 50.4192-6.5024 71.872-17.8944l104.704 181.3504a153.5744 153.5744 0 0 0-97.4848 118.1568z m151.2832 127.9488c-56.5504 0-102.3872-45.8368-102.3872-102.3872s45.8368-102.3872 102.3872-102.3872 102.3872 45.8368 102.3872 102.3872a102.4 102.4 0 0 1-102.3872 102.3872z" p-id="9538" fill="#707070"></path></svg>